<svg width="52" height="52" viewBox="0 0 52 52" fill="none" xmlns="http://www.w3.org/2000/svg">
<rect width="52" height="52" rx="8" fill="#309B42"/>
<path d="M38 16.4338C34.7719 15.9113 32.3743 16.5288 30.807 18.2862C29.2398 20.0437 28.4561 22.6324 28.4561 26.0523V35.7421H38V26.0523H33.0877C32.8304 24.3424 33.0643 22.953 33.7895 21.8843C34.538 20.8155 35.7544 20.3524 37.4386 20.4949L38 16.4338ZM23.5439 16.4338C20.3158 15.9113 17.9181 16.5288 16.3509 18.2862C14.7836 20.0437 14 22.6324 14 26.0523V35.7421H23.5439V26.0523H18.6316C18.3743 24.3424 18.6082 22.953 19.3333 21.8843C20.0819 20.8155 21.2982 20.3524 22.9825 20.4949L23.5439 16.4338Z" fill="white"/>
</svg>
